PathFileType	4	(X/Y/Z)	C:/Users/opensim2020/Desktop/walking_exp_matlab/subject03_walking11_straight_02.trc	
DataRate	CameraRate	NumFrames	NumMarkers	Units	OrigDataRate	OrigDataStartFrame	OrigNumFrames	
100.00	100.00	9	46	mm	100.00	1888	357	
Frame#	Time	LFHD			RFHD			LBHD			RBHD			C7			T10			CLAV			STRN			RBAK			LSHO			LUPA			LELB			LFRM			LWRA			LWRB			LFIN			RSHO			RUPA			RELB			RFRM			RWRA			RWRB			RFIN			LASI			RASI			LPSI			RPSI			LTHI			LKNE			LTIB			LANK			LHEE			LTOE			RTHI			RKNE			RTIB			RANK			RHEE			RTOE			*39			*40			*41			*42			*43			*44			*45			
		X1	Y1	Z1	X2	Y2	Z2	X3	Y3	Z3	X4	Y4	Z4	X5	Y5	Z5	X6	Y6	Z6	X7	Y7	Z7	X8	Y8	Z8	X9	Y9	Z9	X10	Y10	Z10	X11	Y11	Z11	X12	Y12	Z12	X13	Y13	Z13	X14	Y14	Z14	X15	Y15	Z15	X16	Y16	Z16	X17	Y17	Z17	X18	Y18	Z18	X19	Y19	Z19	X20	Y20	Z20	X21	Y21	Z21	X22	Y22	Z22	X23	Y23	Z23	X24	Y24	Z24	X25	Y25	Z25	X26	Y26	Z26	X27	Y27	Z27	X28	Y28	Z28	X29	Y29	Z29	X30	Y30	Z30	X31	Y31	Z31	X32	Y32	Z32	X33	Y33	Z33	X34	Y34	Z34	X35	Y35	Z35	X36	Y36	Z36	X37	Y37	Z37	X38	Y38	Z38	X39	Y39	Z39	X40	Y40	Z40	X41	Y41	Z41	X42	Y42	Z42	X43	Y43	Z43	X44	Y44	Z44	X45	Y45	Z45	X46	Y46	Z46	

90	0.890	-959.69489	475.46716	1623.01013	-1091.57739	492.78860	1620.97607	-945.66479	602.62128	1577.89771	-1076.16577	614.33655	1575.22021	-1000.25366	635.42792	1416.12170	-1005.05078	673.35364	1104.22668	-1004.45007	512.73993	1340.26929	-996.70404	471.88266	1174.49805	-1095.95435	690.40930	1241.76465	-848.28564	551.77454	1378.15234	-775.90375	545.63055	1183.32593	-764.66229	525.95587	1061.60803	-770.09912	472.75671	942.97540	-806.47833	426.69220	835.58722	-755.53809	450.24835	831.83716	-768.97729	411.50003	757.73364	-1163.42969	561.53503	1362.73120	-1231.31665	568.60260	1138.90344	-1242.57349	556.90973	1026.29224	-1243.52393	546.21082	889.75037	-1208.64954	519.82733	792.75433	-1251.76306	552.14264	789.49139	-1240.33948	533.97900	716.41931	-882.56842	515.75189	936.24304	-1118.87305	497.17905	942.98279	-945.98773	673.15802	961.65204	-1093.80579	660.57056	970.30566	-840.76959	607.32404	638.07904	-864.01624	631.40289	459.64325	-870.24976	768.78265	310.34055	-915.60248	882.22302	133.33173	-956.18652	930.96118	124.45409	-942.03802	769.75244	28.61763	-1161.65222	517.37225	646.91858	-1121.83691	474.19974	472.00949	-1128.04602	488.62146	283.32635	-1079.67480	479.94434	67.66236	-1029.61292	523.90216	34.97943	-1058.29358	337.20404	32.42949																					 
91	0.900	-960.67059	467.33038	1623.58508	-1092.53210	484.50659	1621.63672	-946.78314	594.61536	1578.90430	-1077.13330	606.12823	1576.19995	-1001.62933	627.48584	1416.78015	-1007.11664	664.95300	1104.79346	-1005.38849	504.62271	1341.19519	-997.59833	463.30286	1175.64343	-1097.73865	681.70313	1242.39441	-849.42169	544.23633	1379.05371	-777.46466	539.11011	1183.95557	-766.40857	520.97369	1061.89514	-771.08722	469.88147	942.61523	-807.21741	425.54077	833.88202	-756.35291	449.49963	830.78528	-769.65820	412.80841	755.36841	-1164.46899	552.91162	1363.83789	-1232.85986	559.50397	1140.03015	-1244.13391	547.67151	1027.47900	-1244.95813	536.55890	890.98474	-1210.04114	510.15073	794.00116	-1253.24756	542.27002	790.70251	-1241.55261	524.35114	717.59143	-884.04950	507.59845	937.24542	-1120.06128	488.37802	943.38684	-947.83057	664.97931	962.52808	-1095.60034	651.70776	971.27771	-840.23865	596.32819	638.15613	-861.69000	617.53284	459.20590	-868.87683	757.59619	312.42444	-914.85406	875.26117	138.87679	-955.93909	923.67334	132.22157	-942.03442	768.51697	28.82749	-1162.60034	511.62848	647.01550	-1122.73157	469.56726	471.75351	-1128.53259	485.90018	283.23083	-1079.53052	479.79730	67.57589	-1029.56897	523.93378	35.00471	-1058.17114	337.09222	32.31955	-1002.77307	555.13226	1683.30786																		 
92	0.910	-961.62958	459.21265	1624.08276	-1093.47498	476.22986	1622.11157	-947.87146	586.71362	1579.80945	-1078.29211	598.05157	1577.11267	-1003.00146	619.57532	1417.29590	-1009.28113	656.63599	1105.20825	-1006.35797	496.65289	1341.87732	-998.53192	454.91672	1176.42114	-1099.65417	673.11823	1242.84009	-850.55121	536.79761	1379.69165	-778.92242	532.66956	1184.42139	-768.07697	515.88892	1062.11511	-772.15833	467.09778	941.85748	-807.74255	424.42285	831.96545	-757.01874	448.79434	829.58771	-770.25824	414.20792	752.95508	-1165.54443	544.21613	1364.67395	-1234.48682	550.31250	1141.03088	-1245.70691	538.29559	1028.46460	-1246.44202	526.78271	892.01361	-1211.33899	500.31140	795.13385	-1254.71692	532.17236	791.67389	-1242.75378	514.22089	718.50586	-885.52667	499.94983	937.86438	-1121.21069	479.75833	943.53137	-949.64368	656.93799	963.06335	-1097.41504	643.01849	972.03448	-839.69653	585.21552	638.09839	-859.49689	603.30078	458.56027	-867.58423	745.60205	314.36572	-914.02588	867.32428	144.39365	-955.73761	915.40363	140.22728	-942.00952	767.54407	28.68507	-1163.61108	505.42368	647.46631	-1123.66467	465.02698	471.47867	-1128.98279	483.27887	283.14294	-1079.38245	479.61868	67.42395	-1029.54749	523.87427	35.02548	-1058.07947	336.98569	32.18477	-1003.64673	546.66388	1684.08997																		 
93	0.920	-962.45618	451.20975	1624.36401	-1094.32190	467.98053	1622.31689	-948.89063	578.72205	1580.48901	-1079.43372	590.02905	1577.85303	-1004.37280	611.75079	1417.59961	-1011.41437	648.42139	1105.46936	-1007.29608	488.75223	1342.36218	-999.41187	446.63434	1177.00903	-1101.61133	664.51001	1243.04578	-851.57794	529.58466	1380.03723	-780.21155	526.40344	1184.54163	-769.66345	510.92050	1062.03613	-773.22089	464.07034	940.79993	-808.24432	423.20480	830.05646	-757.65802	447.95667	828.24249	-770.76245	415.57620	750.46185	-1166.58521	535.59247	1365.30249	-1236.10901	541.02722	1141.75269	-1247.36584	528.76477	1029.21765	-1247.93579	516.79395	892.83740	-1212.60901	490.25412	796.02106	-1256.21033	521.77515	792.44452	-1244.02808	503.73325	719.28046	-887.01746	492.88293	938.22430	-1122.35498	471.24353	943.37775	-951.38647	649.27625	963.31573	-1099.13513	634.43579	972.55725	-839.04883	573.96814	637.74963	-857.52850	588.77747	457.74622	-866.35992	732.85974	316.13547	-913.39825	858.36249	149.70920	-955.52478	906.09570	148.12900	-941.05054	766.52765	28.94922	-1164.78638	499.49548	648.14545	-1124.66968	460.63394	471.18039	-1129.57959	480.72623	282.98462	-1079.24487	479.50519	67.36400	-1029.53015	523.84125	35.08879	-1058.03052	336.83139	32.08563	-1004.68066	538.26703	1684.74036																		 
94	0.930	-963.18634	443.22006	1624.44983	-1095.10327	459.76511	1622.54150	-949.92535	570.99011	1580.97461	-1080.40381	581.97583	1578.35449	-1005.77271	603.94855	1417.75928	-1013.53888	640.29755	1105.52454	-1008.14618	480.91904	1342.63879	-1000.17261	438.55731	1177.38831	-1103.68933	656.04932	1243.13916	-852.60327	522.50891	1380.11963	-781.56287	520.32520	1184.40771	-771.13940	505.71979	1061.69946	-774.15955	461.01257	939.61816	-808.65271	421.96167	827.96863	-758.19647	447.08270	826.77496	-771.19885	416.95004	747.95782	-1167.63892	526.91400	1365.69775	-1237.78198	531.66241	1142.29724	-1249.00183	519.08636	1029.78516	-1249.50488	506.58679	893.41254	-1213.87805	480.02542	796.76581	-1257.74158	511.14468	793.01257	-1245.27222	492.93765	719.92548	-888.09155	484.48285	938.66803	-1123.44897	462.89862	943.14264	-952.97095	641.73511	963.20953	-1100.70935	626.16443	972.92786	-838.44061	562.65009	637.21606	-855.80054	573.88550	456.90533	-865.23047	719.56152	317.65057	-912.72180	848.55176	154.69826	-955.32471	895.90802	155.87943	-940.05750	764.45996	29.40830	-1166.20557	493.37100	648.31415	-1125.78394	456.32877	470.90411	-1130.15002	478.21243	282.83450	-1079.15308	479.42795	67.29712	-1029.49536	523.80170	35.13524	-1057.98279	336.68951	31.97694	-1005.71198	530.12799	1685.15930																		 
95	0.940	-963.84039	435.36130	1624.41724	-1095.82971	451.59329	1622.57239	-950.88586	563.08240	1581.22693	-1081.39392	573.89728	1578.70105	-1007.19104	596.25055	1417.80298	-1015.54999	632.48724	1105.56348	-1008.92017	473.15744	1342.74536	-1000.95941	430.61465	1177.49146	-1105.77649	647.68750	1243.15979	-853.51282	515.63690	1380.00830	-782.83588	514.35150	1184.02881	-772.53857	500.54605	1061.17139	-775.02020	457.87704	938.29932	-808.86328	420.51810	825.87341	-758.59296	446.12775	825.19177	-771.53418	418.53082	745.40912	-1168.67688	518.33154	1365.91028	-1239.38696	522.18573	1142.64172	-1250.67419	509.24927	1030.18103	-1250.95361	496.16656	893.83826	-1215.01929	469.59097	797.29333	-1259.27026	500.23883	793.41876	-1246.61792	481.78891	720.42236	-889.21594	477.21567	938.56952	-1124.42822	454.88852	942.88287	-954.49078	634.53583	962.66364	-1102.11011	618.14417	973.14136	-837.97974	551.41595	636.53253	-854.35822	558.76544	456.03882	-864.28595	705.63239	318.91272	-912.35614	837.86206	159.42798	-955.00659	885.06860	163.22975	-938.85229	760.68579	30.52058	-1167.46936	487.45990	648.44464	-1126.88953	451.96991	470.69626	-1130.69824	475.63977	282.68356	-1079.08777	479.36255	67.26192	-1029.47412	523.75415	35.17408	-1057.94263	336.59573	31.87022	-1006.32172	521.75482	1685.39172																		 
96	0.950	-964.45575	427.49329	1624.24170	-1096.44617	443.45013	1622.50964	-951.81482	555.39008	1581.27722	-1082.38550	565.91718	1578.85388	-1008.52710	588.64899	1417.80664	-1017.31866	624.77478	1105.46692	-1009.68835	465.59085	1342.69128	-1001.62439	422.88083	1177.43811	-1107.89050	639.48773	1243.13342	-854.35864	508.86127	1379.62769	-784.10095	508.53522	1183.39929	-773.80139	495.32468	1060.41418	-775.85785	454.76776	936.82306	-808.85876	419.46661	823.89233	-758.89612	444.99863	823.58118	-771.88849	419.52905	742.87970	-1169.64429	509.78363	1365.93494	-1240.93530	512.61456	1142.80176	-1252.24646	499.26077	1030.37561	-1252.49023	485.58890	894.11749	-1216.14075	458.93771	797.82355	-1260.74756	489.09128	793.65302	-1247.95862	470.28415	720.78625	-890.16040	470.09372	938.25330	-1125.44092	447.06201	942.73169	-955.67993	627.18488	961.85834	-1103.31335	610.48077	973.31128	-837.64813	540.23962	635.77844	-853.12073	543.47827	455.19241	-863.33496	691.37512	319.92587	-912.24762	826.81708	164.14708	-955.47760	873.63342	169.47137	-936.77948	753.64343	33.00557	-1168.60901	481.56979	648.49976	-1127.86279	447.68283	470.48523	-1131.25366	473.04669	282.52087	-1079.03308	479.28271	67.24650	-1029.49658	523.71191	35.21185	-1057.94946	336.49109	31.78934	-1006.99194	513.65643	1685.47131																		 
97	0.960	-964.90497	419.62253	1624.04626	-1097.00146	435.30496	1622.39905	-952.64502	547.58313	1581.23938	-1083.23657	557.84222	1578.92981	-1009.85852	581.02429	1417.73975	-1018.87006	617.29742	1105.36987	-1010.37811	458.10458	1342.47412	-1002.24768	415.33463	1177.22937	-1109.88708	631.46167	1243.10950	-855.12817	502.32269	1379.14404	-785.30249	502.91714	1182.60852	-774.97455	490.29639	1059.52966	-776.61285	451.55508	935.27734	-809.15967	418.14600	821.62030	-759.14099	443.77689	821.88831	-772.14313	420.31796	740.43420	-1170.57190	501.27505	1365.80542	-1242.36694	502.97852	1142.79309	-1253.83557	489.14954	1030.43701	-1253.90320	474.84070	894.31842	-1217.28357	448.18781	798.06866	-1262.27869	477.67145	793.78400	-1249.32190	458.47424	721.00317	-890.88123	463.31375	937.74365	-1126.35522	439.40909	942.68799	-956.68195	620.13031	960.99774	-1104.35840	603.08893	973.40833	-837.47369	529.11499	635.03571	-852.10455	528.30518	454.51825	-862.54352	676.97693	321.04141	-912.57263	815.34235	168.85106	-956.40375	861.85919	174.35979	-933.24091	743.93341	36.20683	-1169.39807	475.65216	648.59906	-1128.68506	443.37134	470.30515	-1131.77893	470.45645	282.38416	-1079.00232	479.19983	67.19721	-1029.54675	523.74890	35.34670	-1057.95898	336.40378	31.70322	-1007.51440	505.60324	1685.44019																		 
98	0.970	-965.40631	411.84317	1623.76379	-1097.48730	427.15631	1622.23486	-953.45575	539.87811	1581.13489	-1084.10059	549.80652	1578.92407	-1011.16736	573.55621	1417.71973	-1020.17084	610.13232	1105.33130	-1010.96100	450.71219	1342.29358	-1002.72656	408.08487	1176.99988	-1111.76880	623.61682	1243.14722	-855.82104	495.92343	1378.58765	-786.37524	497.48914	1181.75745	-776.04425	485.35037	1058.60059	-777.23578	448.44318	933.74139	-809.27985	416.91913	819.29620	-759.29681	442.39502	820.27991	-772.22314	420.90244	738.13531	-1171.40076	492.79425	1365.53271	-1243.74963	493.25354	1142.68359	-1255.27307	478.86685	1030.41345	-1255.32202	463.78220	894.27429	-1218.29944	437.26996	798.24542	-1263.75732	466.03391	793.84033	-1250.70935	446.46988	721.36786	-891.62756	456.71185	937.25775	-1127.19861	431.89902	942.75525	-957.62732	613.11346	959.99518	-1105.34106	595.90955	973.47839	-837.36218	518.07349	634.53912	-851.17664	512.97766	454.09381	-862.28137	662.56580	322.51202	-913.15454	803.11322	172.92989	-957.79590	849.12823	178.17844	-929.16730	732.36938	39.53320	-1170.11182	469.61700	648.65411	-1129.34009	439.07922	470.11240	-1132.24707	468.03952	282.22842	-1079.00354	479.14297	67.20993	-1029.59741	523.70697	35.40396	-1057.92358	336.36548	31.63267	-1008.23138	497.62378	1685.42053																		 
